<?xml version="1.0" encoding="UTF-8" standalone="no"?>
<!DOCTYPE svg PUBLIC "-//W3C//DTD SVG 1.0//EN" "http://www.w3.org/TR/2001/PR-SVG-20010719/DTD/svg10.dtd">
<svg width="56cm" height="24cm" viewBox="399 199 1117 466" xmlns="http://www.w3.org/2000/svg" xmlns:xlink="http://www.w3.org/1999/xlink">
  <g>
    <rect style="fill: #ffffff" x="460" y="200" width="60.35" height="28"/>
    <rect style="fill: none; fill-opacity:0; stroke-width: 2; stroke: #000000" x="460" y="200" width="60.35" height="28"/>
    <text font-size="16" style="fill: #000000;text-anchor:middle;font-family:sans-serif;font-style:normal;font-weight:700" x="490.175" y="219">ICook</text>
  </g>
  <g>
    <rect style="fill: #ffffff" x="400" y="260" width="210.2" height="28"/>
    <rect style="fill: none; fill-opacity:0; stroke-width: 2; stroke: #000000" x="400" y="260" width="210.2" height="28"/>
    <text font-size="16" style="fill: #000000;text-anchor:middle;font-family:sans-serif;font-style:normal;font-weight:700" x="505.1" y="279">Cook</text>
    <rect style="fill: #ffffff" x="400" y="288" width="210.2" height="36"/>
    <rect style="fill: none; fill-opacity:0; stroke-width: 2; stroke: #000000" x="400" y="288" width="210.2" height="36"/>
    <text font-size="12.8" style="fill: #000000;text-anchor:start;font-family:monospace;font-style:normal;font-weight:normal" x="403" y="302">-_thread: pthread_t = NULL</text>
    <text font-size="12.8" style="fill: #000000;text-anchor:start;font-family:monospace;font-style:normal;font-weight:normal" x="403" y="318">-_isAvailable: bool = true</text>
    <rect style="fill: #ffffff" x="400" y="324" width="210.2" height="8"/>
    <rect style="fill: none; fill-opacity:0; stroke-width: 2; stroke: #000000" x="400" y="324" width="210.2" height="8"/>
  </g>
  <g>
    <rect style="fill: #ffffff" x="700" y="200" width="102.387" height="28"/>
    <rect style="fill: none; fill-opacity:0; stroke-width: 2; stroke: #000000" x="700" y="200" width="102.387" height="28"/>
    <text font-size="16" style="fill: #000000;text-anchor:middle;font-family:sans-serif;font-style:normal;font-weight:700" x="751.194" y="219">IPizzaTask</text>
  </g>
  <g>
    <rect style="fill: #ffffff" x="640" y="260" width="233.3" height="28"/>
    <rect style="fill: none; fill-opacity:0; stroke-width: 2; stroke: #000000" x="640" y="260" width="233.3" height="28"/>
    <text font-size="16" style="fill: #000000;text-anchor:middle;font-family:sans-serif;font-style:normal;font-weight:700" x="756.65" y="279">PizzaTask</text>
    <rect style="fill: #ffffff" x="640" y="288" width="233.3" height="68"/>
    <rect style="fill: none; fill-opacity:0; stroke-width: 2; stroke: #000000" x="640" y="288" width="233.3" height="68"/>
    <text font-size="12.8" style="fill: #000000;text-anchor:start;font-family:monospace;font-style:normal;font-weight:normal" x="643" y="302">-_type: PizzaTask::pizzaTypes</text>
    <text font-size="12.8" style="fill: #000000;text-anchor:start;font-family:monospace;font-style:normal;font-weight:normal" x="643" y="318">-_size: PizzaTask::pizzaSizes</text>
    <text font-size="12.8" style="fill: #000000;text-anchor:start;font-family:monospace;font-style:normal;font-weight:normal" x="643" y="334">+pizzaTypes: enum = {}</text>
    <text font-size="12.8" style="fill: #000000;text-anchor:start;font-family:monospace;font-style:normal;font-weight:normal" x="643" y="350">+pizzaSizes: enum = {}</text>
    <rect style="fill: #ffffff" x="640" y="356" width="233.3" height="8"/>
    <rect style="fill: none; fill-opacity:0; stroke-width: 2; stroke: #000000" x="640" y="356" width="233.3" height="8"/>
  </g>
  <g>
    <rect style="fill: #ffffff" x="980" y="200" width="110.35" height="28"/>
    <rect style="fill: none; fill-opacity:0; stroke-width: 2; stroke: #000000" x="980" y="200" width="110.35" height="28"/>
    <text font-size="16" style="fill: #000000;text-anchor:middle;font-family:sans-serif;font-style:normal;font-weight:700" x="1035.17" y="219">IIngredient</text>
  </g>
  <g>
    <rect style="fill: #ffffff" x="900" y="260" width="287.2" height="28"/>
    <rect style="fill: none; fill-opacity:0; stroke-width: 2; stroke: #000000" x="900" y="260" width="287.2" height="28"/>
    <text font-size="16" style="fill: #000000;text-anchor:middle;font-family:sans-serif;font-style:normal;font-weight:700" x="1043.6" y="279">Ingredient</text>
    <rect style="fill: #ffffff" x="900" y="288" width="287.2" height="36"/>
    <rect style="fill: none; fill-opacity:0; stroke-width: 2; stroke: #000000" x="900" y="288" width="287.2" height="36"/>
    <text font-size="12.8" style="fill: #000000;text-anchor:start;font-family:monospace;font-style:normal;font-weight:normal" x="903" y="302">-_type: IIngredient::ingredientTypes</text>
    <text font-size="12.8" style="fill: #000000;text-anchor:start;font-family:monospace;font-style:normal;font-weight:normal" x="903" y="318">+ingredientTypes: enum = {}</text>
    <rect style="fill: #ffffff" x="900" y="324" width="287.2" height="8"/>
    <rect style="fill: none; fill-opacity:0; stroke-width: 2; stroke: #000000" x="900" y="324" width="287.2" height="8"/>
  </g>
  <g>
    <rect style="fill: #ffffff" x="480" y="480" width="256.4" height="28"/>
    <rect style="fill: none; fill-opacity:0; stroke-width: 2; stroke: #000000" x="480" y="480" width="256.4" height="28"/>
    <text font-size="16" style="fill: #000000;text-anchor:middle;font-family:sans-serif;font-style:normal;font-weight:700" x="608.2" y="499">FIFO</text>
    <rect style="fill: #ffffff" x="480" y="508" width="256.4" height="68"/>
    <rect style="fill: none; fill-opacity:0; stroke-width: 2; stroke: #000000" x="480" y="508" width="256.4" height="68"/>
    <text font-size="12.8" style="fill: #000000;text-anchor:start;font-family:monospace;font-style:normal;font-weight:normal" x="483" y="522">-readFilename: std::string = ""</text>
    <text font-size="12.8" style="fill: #000000;text-anchor:start;font-family:monospace;font-style:normal;font-weight:normal" x="483" y="538">-writeFilename: std::string = ""</text>
    <text font-size="12.8" style="fill: #000000;text-anchor:start;font-family:monospace;font-style:normal;font-weight:normal" x="483" y="554">+writeFd: int</text>
    <text font-size="12.8" style="fill: #000000;text-anchor:start;font-family:monospace;font-style:normal;font-weight:normal" x="483" y="570">-readFd: int</text>
    <rect style="fill: #ffffff" x="480" y="576" width="256.4" height="8"/>
    <rect style="fill: none; fill-opacity:0; stroke-width: 2; stroke: #000000" x="480" y="576" width="256.4" height="8"/>
  </g>
  <g>
    <rect style="fill: #ffffff" x="820" y="480" width="194.8" height="28"/>
    <rect style="fill: none; fill-opacity:0; stroke-width: 2; stroke: #000000" x="820" y="480" width="194.8" height="28"/>
    <text font-size="16" style="fill: #000000;text-anchor:middle;font-family:sans-serif;font-style:normal;font-weight:700" x="917.4" y="499">Mutex</text>
    <rect style="fill: #ffffff" x="820" y="508" width="194.8" height="20"/>
    <rect style="fill: none; fill-opacity:0; stroke-width: 2; stroke: #000000" x="820" y="508" width="194.8" height="20"/>
    <text font-size="12.8" style="fill: #000000;text-anchor:start;font-family:monospace;font-style:normal;font-weight:normal" x="823" y="522">-_mutex: pthread_mutex_t</text>
    <rect style="fill: #ffffff" x="820" y="528" width="194.8" height="8"/>
    <rect style="fill: none; fill-opacity:0; stroke-width: 2; stroke: #000000" x="820" y="528" width="194.8" height="8"/>
  </g>
  <g>
    <rect style="fill: #ffffff" x="1140" y="480" width="163.75" height="28"/>
    <rect style="fill: none; fill-opacity:0; stroke-width: 2; stroke: #000000" x="1140" y="480" width="163.75" height="28"/>
    <text font-size="16" style="fill: #000000;text-anchor:middle;font-family:sans-serif;font-style:normal;font-weight:700" x="1221.88" y="499">PizzaTaskFactory</text>
    <rect style="fill: #ffffff" x="1140" y="508" width="163.75" height="8"/>
    <rect style="fill: none; fill-opacity:0; stroke-width: 2; stroke: #000000" x="1140" y="508" width="163.75" height="8"/>
    <rect style="fill: #ffffff" x="1140" y="516" width="163.75" height="8"/>
    <rect style="fill: none; fill-opacity:0; stroke-width: 2; stroke: #000000" x="1140" y="516" width="163.75" height="8"/>
  </g>
  <g>
    <rect style="fill: #ffffff" x="1220" y="260" width="294.9" height="28"/>
    <rect style="fill: none; fill-opacity:0; stroke-width: 2; stroke: #000000" x="1220" y="260" width="294.9" height="28"/>
    <text font-size="16" style="fill: #000000;text-anchor:middle;font-family:sans-serif;font-style:normal;font-weight:700" x="1367.45" y="279">Kitchen</text>
    <rect style="fill: #ffffff" x="1220" y="288" width="294.9" height="116"/>
    <rect style="fill: none; fill-opacity:0; stroke-width: 2; stroke: #000000" x="1220" y="288" width="294.9" height="116"/>
    <text font-size="12.8" style="fill: #000000;text-anchor:start;font-family:monospace;font-style:normal;font-weight:normal" x="1223" y="302">-_fifo: FIFO</text>
    <text font-size="12.8" style="fill: #000000;text-anchor:start;font-family:monospace;font-style:normal;font-weight:normal" x="1223" y="318">-_cooks: std::list&lt;Cook *&gt;</text>
    <text font-size="12.8" style="fill: #000000;text-anchor:start;font-family:monospace;font-style:normal;font-weight:normal" x="1223" y="334">-_awaiting: std::list&lt;IPizzaTask *&gt;</text>
    <text font-size="12.8" style="fill: #000000;text-anchor:start;font-family:monospace;font-style:normal;font-weight:normal" x="1223" y="350">-_processing: std::list&lt;IPizzaTask *&gt;</text>
    <text font-size="12.8" style="fill: #000000;text-anchor:start;font-family:monospace;font-style:normal;font-weight:normal" x="1223" y="366">-_stock: std::map&lt;IIngredient *, int&gt;</text>
    <text font-size="12.8" style="fill: #000000;text-anchor:start;font-family:monospace;font-style:normal;font-weight:normal" x="1223" y="382">-_processingMutex: Mutex</text>
    <text font-size="12.8" style="fill: #000000;text-anchor:start;font-family:monospace;font-style:normal;font-weight:normal" x="1223" y="398">-_stockMutex: Mutex</text>
    <rect style="fill: #ffffff" x="1220" y="404" width="294.9" height="8"/>
    <rect style="fill: none; fill-opacity:0; stroke-width: 2; stroke: #000000" x="1220" y="404" width="294.9" height="8"/>
  </g>
  <g>
    <rect style="fill: #ffffff" x="880" y="620" width="67.45" height="28"/>
    <rect style="fill: none; fill-opacity:0; stroke-width: 2; stroke: #000000" x="880" y="620" width="67.45" height="28"/>
    <text font-size="16" style="fill: #000000;text-anchor:middle;font-family:sans-serif;font-style:normal;font-weight:700" x="913.725" y="639">Plazza</text>
    <rect style="fill: #ffffff" x="880" y="648" width="67.45" height="8"/>
    <rect style="fill: none; fill-opacity:0; stroke-width: 2; stroke: #000000" x="880" y="648" width="67.45" height="8"/>
    <rect style="fill: #ffffff" x="880" y="656" width="67.45" height="8"/>
    <rect style="fill: none; fill-opacity:0; stroke-width: 2; stroke: #000000" x="880" y="656" width="67.45" height="8"/>
  </g>
</svg>
